<svg width="809" height="503" viewBox="0 0 809 503" fill="none" xmlns="http://www.w3.org/2000/svg">
<rect width="809" height="503" fill="white"/>
<path d="M378.065 328.182V326.477C378.254 308.39 380.148 293.996 383.746 283.295C387.345 272.595 392.459 263.93 399.087 257.301C405.716 250.672 413.671 244.564 422.951 238.977C428.538 235.568 433.557 231.544 438.008 226.903C442.459 222.169 445.962 216.723 448.519 210.568C451.171 204.413 452.496 197.595 452.496 190.114C452.496 180.833 450.318 172.784 445.962 165.966C441.606 159.148 435.782 153.892 428.491 150.199C421.199 146.506 413.103 144.659 404.201 144.659C396.436 144.659 388.955 146.269 381.758 149.489C374.561 152.708 368.548 157.775 363.718 164.688C358.888 171.6 356.095 180.644 355.337 191.818H319.542C320.299 175.72 324.466 161.941 332.042 150.483C339.712 139.025 349.798 130.265 362.298 124.205C374.892 118.144 388.86 115.114 404.201 115.114C420.868 115.114 435.356 118.428 447.667 125.057C460.072 131.686 469.637 140.777 476.36 152.33C483.178 163.883 486.587 177.045 486.587 191.818C486.587 202.235 484.978 211.657 481.758 220.085C478.633 228.513 474.087 236.042 468.121 242.67C462.25 249.299 455.148 255.17 446.815 260.284C438.481 265.492 431.805 270.985 426.786 276.761C421.767 282.443 418.121 289.214 415.849 297.074C413.576 304.934 412.345 314.735 412.156 326.477V328.182H378.065ZM396.246 412.273C389.239 412.273 383.226 409.763 378.207 404.744C373.188 399.725 370.678 393.712 370.678 386.705C370.678 379.697 373.188 373.684 378.207 368.665C383.226 363.646 389.239 361.136 396.246 361.136C403.254 361.136 409.267 363.646 414.286 368.665C419.305 373.684 421.815 379.697 421.815 386.705C421.815 391.345 420.631 395.606 418.263 399.489C415.991 403.371 412.913 406.496 409.031 408.864C405.243 411.136 400.981 412.273 396.246 412.273Z" fill="black"/>
</svg>
