<svg width="279" height="307" viewBox="0 0 279 307" fill="none" xmlns="http://www.w3.org/2000/svg">
<g clip-path="url(#clip0_58_120)">
<path d="M101.897 296.375V255.746L102.476 226.873C103.172 217.891 106.966 209.424 113.207 202.871C113.298 202.774 113.39 202.679 113.483 202.584C113.724 202.336 113.565 201.936 113.207 201.895C71.5021 197.093 28.0504 180.848 28.0504 110.121C27.7785 92.7021 33.9391 75.8154 45.3253 62.5704C45.7237 62.1072 46.1282 61.6482 46.5394 61.194C47.0744 60.6027 47.2494 59.8013 47.0043 59.065C46.9894 59.0204 46.9746 58.9757 46.9598 58.9309C46.6818 58.0897 46.421 57.2445 46.1773 56.396C41.9917 41.8153 42.8917 26.2401 48.7825 12.1836C48.8258 12.0798 48.8697 11.9761 48.9138 11.8725C49.1337 11.3551 49.5954 10.9597 50.1886 10.862C53.8868 10.2537 68.8317 9.43978 97.4426 27.6662C98.3332 28.2334 99.2368 28.8192 100.154 29.4239C100.816 29.8604 101.658 29.9943 102.441 29.7887L102.515 29.7691C104.051 29.3664 105.591 28.9843 107.134 28.6225C134.331 22.2496 162.669 22.2496 189.865 28.6225C191.33 28.9654 192.789 29.3269 194.247 29.7066L194.341 29.7315C195.262 29.9722 196.252 29.815 197.031 29.3024C197.885 28.7406 198.726 28.1953 199.557 27.6662C228.101 9.4782 242.964 10.2504 246.679 10.8582C247.283 10.9571 247.754 11.3597 247.981 11.8864C248.011 11.9542 248.038 12.0218 248.068 12.0896C254.058 26.1525 255.009 41.774 250.821 56.396C250.571 57.2675 250.303 58.1357 250.017 58.9998C249.759 59.7769 249.945 60.622 250.508 61.2464L250.561 61.3052C250.938 61.723 251.31 62.1448 251.674 62.5704C263.061 75.8154 269.222 92.7021 268.95 110.121C268.95 181.234 225.189 197.053 183.285 201.363C183.042 201.387 182.934 201.655 183.097 201.822C183.159 201.885 183.223 201.949 183.285 202.012C187.513 206.357 190.793 211.514 192.917 217.164C195.136 223.071 196.04 229.378 195.567 235.659V296.375" stroke="white" stroke-width="20" stroke-linecap="round" stroke-linejoin="round"/>
<path d="M10.8333 232.875C17.1857 233.705 23.2506 235.864 28.569 239.185C33.8873 242.508 38.3194 246.905 41.5295 252.049C44.2572 256.627 47.9346 260.663 52.3508 263.922C56.7669 267.181 61.8351 269.602 67.2644 271.043C72.6934 272.486 78.3766 272.921 83.9879 272.324C89.5992 271.729 95.0281 270.113 99.9631 267.57" stroke="white" stroke-width="20" stroke-linecap="round" stroke-linejoin="round"/>
</g>
<defs>
<clipPath id="clip0_58_120">
<rect width="279" height="307" fill="white"/>
</clipPath>
</defs>
</svg>
