<svg width="132" height="119" viewBox="0 0 132 119" fill="none" xmlns="http://www.w3.org/2000/svg">
<rect x="5" y="5" width="122" height="109" rx="5" stroke="white" stroke-width="10"/>
<path d="M35.6506 14.875C29.6323 14.875 24.75 19.2692 24.75 24.6948C24.75 30.1205 29.6283 34.6163 35.6426 34.6163C41.6568 34.6163 46.5432 30.1205 46.5432 24.6948C46.5432 19.2729 41.669 14.875 35.6506 14.875ZM88.8325 40.9062C79.6791 40.9062 74.4418 45.2217 71.9297 49.5131H71.6638V42.0611H53.625V96.6875H72.4211V69.6467C72.4211 62.5215 73.0177 55.636 82.7981 55.636C92.4382 55.636 92.5789 63.7602 92.5789 70.097V96.6875H111.351H111.375V66.6833C111.375 52.0017 107.874 40.9062 88.8325 40.9062ZM26.2485 42.0611V96.6875H45.0608V42.0611H26.2485Z" fill="white"/>
</svg>
