<svg width="700" height="700" viewBox="0 0 700 700" fill="none" xmlns="http://www.w3.org/2000/svg">
<circle cx="350" cy="350" r="350" fill="black"/>
<path d="M324.289 359.962C325.036 345.927 331.554 333.526 341.43 324.764C351.094 316.15 364.074 310.878 378.323 310.878C392.501 310.878 405.481 316.143 415.145 324.764C425.021 333.526 431.51 345.927 432.286 359.962C433.034 374.368 427.525 387.808 417.896 397.758C408.02 407.857 394.053 414.244 378.323 414.244C362.592 414.244 348.555 407.902 338.749 397.758C329.085 387.808 323.583 374.442 324.359 360.036L324.289 359.962Z" fill="#265787"/>
<path d="M239.64 389.664C239.732 395.159 241.396 405.852 243.894 414.169C249.142 431.842 258.072 448.179 270.417 462.51C283.114 477.287 298.774 489.169 316.833 497.634C335.808 506.47 356.406 511 377.78 511C399.154 510.97 419.752 506.366 438.727 497.411C456.785 488.872 472.446 476.99 485.143 462.139C497.558 447.659 506.446 431.322 511.666 413.649C514.311 404.738 515.983 395.679 516.653 386.62C517.309 377.709 517.034 368.724 515.828 359.739C513.472 342.288 507.716 325.877 498.898 311.026C490.857 297.288 480.417 285.333 468.001 275.234L468.03 275.212L343.173 174.222C343.06 174.133 342.968 174.036 342.848 173.955C334.665 167.331 320.839 167.353 311.881 173.992C302.781 180.705 301.723 191.814 309.835 198.794L309.8 198.831L361.929 243.459L203.213 243.638H203.001C189.881 243.652 177.254 252.697 174.785 264.207C172.217 275.865 181.134 285.593 194.818 285.593L194.797 285.645L275.214 285.481L131.311 401.322C131.127 401.464 130.93 401.612 130.76 401.753C117.217 412.669 112.843 430.862 121.379 442.298C130.055 453.956 148.466 454.03 162.151 442.364L240.451 374.79C240.451 374.79 239.309 383.924 239.4 389.345L239.64 389.664ZM441.386 420.184C425.233 437.485 402.589 447.362 378.182 447.362C353.704 447.406 331.061 437.708 314.907 420.407C307.006 411.941 301.222 402.288 297.625 391.966C294.119 381.793 292.757 371.026 293.66 360.184C294.514 349.565 297.519 339.392 302.337 330.258C307.049 321.273 313.553 313.105 321.524 306.199C337.254 292.759 357.217 285.407 378.097 285.407C399.048 285.377 419.011 292.603 434.741 306.051C442.713 312.912 449.202 321.051 453.929 330.036C458.746 339.169 461.759 349.268 462.605 359.961C463.494 370.803 462.133 381.57 458.627 391.743C455.043 402.139 449.245 411.793 441.344 420.258L441.386 420.184Z" fill="#EA7600"/>
</svg>
