<svg width="700" height="700" viewBox="0 0 700 700" fill="none" xmlns="http://www.w3.org/2000/svg">
<circle cx="350" cy="350" r="350" fill="black"/>
<path d="M371.504 241.25H323.998V284.443H371.504V241.25Z" fill="#099CEC"/>
<path d="M371.504 293.14H323.998V335.83H371.504V293.14Z" fill="#099CEC"/>
<path d="M315.374 241.25H267.868V284.443H315.374V241.25Z" fill="#099CEC"/>
<path d="M427.706 293.068H380.199V335.759H427.706V293.068Z" fill="#099CEC"/>
<path d="M371.504 189H323.998V232.625H371.504V189Z" fill="#099CEC"/>
<path d="M259.242 241.25H211.737V284.443H259.242V241.25Z" fill="#099CEC"/>
<path d="M315.374 293.068H267.868V335.759H315.374V293.068Z" fill="#099CEC"/>
<path d="M570.44 313.12C560.09 306.148 536.23 303.633 517.903 307.084C515.532 289.835 505.9 274.814 488.365 261.302L478.303 254.617L471.618 264.679C458.393 284.659 454.801 317.575 468.96 339.281C462.708 342.658 450.415 347.259 434.174 346.97H121.756C115.504 383.481 125.925 430.915 153.38 463.471C180.043 495.022 220.003 511.05 272.252 511.05C385.376 511.05 469.103 458.946 508.273 364.29C523.654 364.578 556.857 364.363 573.891 331.807C574.969 330.01 578.634 322.319 579.998 319.516L570.44 313.12Z" fill="#099CEC"/>
<path d="M203.185 293.068H203.112H155.679V335.759H203.185V293.068Z" fill="#099CEC"/>
<path d="M259.242 293.068H211.737V335.759H259.242V293.068Z" fill="#099CEC"/>
</svg>
