<svg width="700" height="700" viewBox="0 0 700 700" fill="none" xmlns="http://www.w3.org/2000/svg">
<circle cx="350" cy="350" r="350" fill="black"/>
<path d="M510.613 350.345C510.613 261.862 438.782 190.031 350.3 190.031C261.818 190.031 189.987 261.862 189.987 350.345C189.987 438.827 261.818 510.658 350.3 510.658C438.782 510.658 510.613 438.827 510.613 350.345Z" fill="#000080"/>
<path d="M463.671 283.916C463.671 258.009 442.635 236.974 416.728 236.974C390.821 236.974 369.786 258.009 369.786 283.916C369.786 309.823 390.821 330.859 416.728 330.859C442.635 330.859 463.671 309.823 463.671 283.916Z" fill="white"/>
<path d="M557.556 189.987C557.556 164.08 536.52 143.044 510.613 143.044C484.706 143.044 463.671 164.08 463.671 189.987C463.671 215.894 484.706 236.929 510.613 236.929C536.52 236.929 557.556 215.938 557.556 189.987Z" fill="#000080"/>
<path d="M254.909 418.632H306.856V430.456H241.491V325.278H254.909V418.632Z" fill="white"/>
<path d="M368.9 430.457V419.917C361.814 429.881 354.773 433.778 343.657 433.778C328.954 433.778 319.566 425.718 319.566 413.141V354.861H331.523V408.402C331.523 417.481 337.59 423.282 347.111 423.282C359.644 423.282 367.748 413.185 367.748 397.73V354.861H379.706V430.457H368.9Z" fill="white"/>
<path d="M467.612 432.494C463.715 433.512 461.855 433.778 459.375 433.778C451.581 433.778 447.817 430.324 446.975 422.662C438.472 430.457 430.811 433.778 421.29 433.778C406.011 433.778 396.49 425.142 396.49 411.414C396.49 401.583 400.963 394.807 409.775 391.22C414.381 389.36 416.994 388.784 434 386.614C443.521 385.463 446.532 383.293 446.532 378.244V375.056C446.532 367.837 440.465 363.807 429.66 363.807C418.411 363.807 412.92 367.97 411.901 377.226H399.767C400.077 369.741 401.494 365.401 404.948 361.504C409.997 355.88 419.075 352.691 430.058 352.691C448.658 352.691 458.489 359.91 458.489 373.328V417.791C458.489 421.555 460.792 423.725 464.999 423.725C465.708 423.725 466.284 423.725 467.612 423.415V432.494ZM446.532 393.08C442.502 394.94 439.889 395.515 427.18 397.243C414.337 399.103 408.978 403.177 408.978 411.104C408.978 418.765 414.47 423.238 423.858 423.238C430.944 423.238 436.834 420.935 441.749 416.462C445.337 413.141 446.532 410.705 446.532 406.631V393.08Z" fill="white"/>
<path d="M535.015 256.194C549.85 285.333 557.6 317.573 557.6 350.3C557.6 464.734 464.734 557.6 350.3 557.6C235.867 557.6 143 464.734 143 350.3C143 235.867 235.867 143 350.3 143C387.101 143 423.194 152.787 454.902 171.298" stroke="#808080" stroke-width="10.8612" stroke-miterlimit="10" stroke-dasharray="40.85 40.85"/>
</svg>
