<svg width="790" height="720" viewBox="0 0 790 720" fill="none" xmlns="http://www.w3.org/2000/svg">
<ellipse cx="434.5" cy="395" rx="336.5" ry="312" fill="white"/>
<path d="M369.13 0.193755C367.431 0.334496 362.025 0.827093 357.16 1.17895C244.954 10.3975 139.852 65.5683 73.2854 150.365C36.218 197.514 12.5103 250.996 3.5523 307.644C0.386119 327.418 0 333.259 0 360.07C0 386.882 0.386119 392.723 3.5523 412.497C25.0205 547.679 130.586 661.258 273.759 703.34C299.397 710.869 326.425 716.006 357.16 719.103C369.13 720.299 420.87 720.299 432.84 719.103C485.892 713.755 530.837 701.792 575.163 681.173C581.959 678.006 583.272 677.162 582.345 676.458C581.727 676.036 552.768 640.639 518.018 597.854L454.848 520.094L375.694 413.341C332.14 354.652 296.308 306.659 295.999 306.659C295.69 306.589 295.381 354.019 295.227 411.934C294.995 513.338 294.918 517.42 293.528 519.812C291.52 523.261 289.976 524.668 286.732 526.216C284.261 527.342 282.099 527.553 270.438 527.553H257.078L253.526 525.512C251.209 524.175 249.51 522.416 248.352 520.375L246.73 517.209L246.885 376.115L247.116 234.951L249.51 232.207C250.746 230.729 253.371 228.829 255.225 227.914C258.391 226.507 259.627 226.366 272.986 226.366C288.74 226.366 291.366 226.929 295.458 231.01C296.617 232.136 339.476 290.966 390.753 361.83C442.029 432.693 512.149 529.453 546.59 576.954L609.142 663.299L612.308 661.399C640.34 644.791 669.994 621.146 693.47 596.517C743.434 544.231 775.636 480.475 786.448 412.497C789.614 392.723 790 386.882 790 360.07C790 333.259 789.614 327.418 786.448 307.644C764.979 172.462 659.414 58.8831 516.241 16.8013C490.989 9.34197 464.115 4.2049 433.998 1.10858C426.585 0.404867 375.54 -0.369213 369.13 0.193755ZM530.837 217.921C534.544 219.61 537.555 222.847 538.636 226.225C539.254 228.055 539.409 267.181 539.254 355.356L539.022 481.882L514.542 447.682L489.985 413.482V321.507C489.985 262.044 490.294 228.618 490.758 226.999C491.993 223.058 494.696 219.962 498.403 218.132C501.569 216.655 502.727 216.514 514.851 216.514C526.281 216.514 528.288 216.655 530.837 217.921Z" fill="black"/>
</svg>
