<svg width="700" height="700" viewBox="0 0 700 700" fill="none" xmlns="http://www.w3.org/2000/svg">
<circle cx="350" cy="350" r="350" fill="black"/>
<path d="M325.255 549.743C286.278 547.045 247.754 537.62 224.127 525.003C210.67 517.817 200.417 508.985 196.394 501.114L194 496.43V349.528V202.625L195.894 198.931C204.359 182.422 231.373 167.54 269.084 158.61C281.885 155.579 300.365 152.56 315.442 151.037C330.837 149.483 371.642 149.719 386.998 151.455C427.813 156.061 462.544 166.373 483.947 180.241C492.201 185.589 500.671 194.146 503.54 200.037L506 205.087L505.789 351.545L505.579 498.004L503.604 501.858C502.518 503.977 499.237 508.147 496.314 511.124C478.517 529.247 440.342 542.653 390.27 548.365C380.064 549.529 335.726 550.469 325.255 549.743ZM397.085 423.868C396.935 423.492 391.108 418.506 384.136 412.787C377.165 407.067 371.16 402.119 370.793 401.79C370.426 401.462 371.714 400.299 373.655 399.205C375.597 398.112 379.316 395.071 381.921 392.447C389.538 384.775 393.132 375.297 393.132 362.882C393.132 350.661 389.256 340.8 381.492 333.272C373.668 325.685 364.684 322.425 351.601 322.425C331.435 322.425 315.948 333.728 311.004 352.054C309.304 358.357 309.313 371.094 311.022 376.684C315.48 391.263 327.621 401.851 342.732 404.338C347.845 405.179 348.538 405.542 352.024 409.203C354.096 411.379 358.347 415.722 361.472 418.854L367.153 424.55H382.255C390.561 424.55 397.235 424.243 397.085 423.868ZM345.293 383.248C341.657 381.427 340.283 380.014 338.209 375.965C336.608 372.838 336.334 371.059 336.316 363.668C336.298 356.158 336.547 354.535 338.219 351.274C340.955 345.937 344.724 343.411 350.556 343.006C358.673 342.44 363.358 346.267 365.814 355.464C368.825 366.739 365.514 378.727 358.29 382.705C354.501 384.792 348.848 385.029 345.293 383.248ZM278.353 404.177C294.187 401.293 303.175 392.448 303.175 379.75C303.175 368.485 297.372 361.921 281.334 355.043C272.153 351.106 268.828 348.635 268.828 345.747C268.828 343.354 271.983 340.732 275.657 340.073C279.244 339.429 288.758 341.017 294.377 343.197L299.086 345.024V335.011V324.996L293.975 323.907C290.816 323.234 284.178 322.83 276.597 322.851C265.858 322.851 263.755 323.102 259.714 324.644C247.909 329.146 242.307 336.814 242.397 348.349C242.481 359.148 248.411 365.884 263.171 371.944C271.88 375.52 275.37 378.242 275.37 381.46C275.37 388.297 263.511 389.138 250.955 383.192C247.516 381.564 244.427 380.098 244.09 379.936C243.752 379.774 243.476 384.452 243.476 390.331C243.476 400.973 243.488 401.025 245.494 401.758C253.047 404.517 269.742 405.746 278.353 404.177ZM459.373 394.305V385.271H445.062H430.75V354.241V323.211H418.075H405.399V363.275V403.339H432.386H459.373V394.305ZM371.052 235.992C396.241 234.313 415.122 231.145 431.738 225.808C448.291 220.492 458.069 214.059 460.256 207.046C461.099 204.344 461.038 203.319 459.861 200.356C454.58 187.073 425.08 176.868 380.001 172.73C360.719 170.96 325.651 171.534 307.265 173.92C279.211 177.561 256.444 184.324 246.321 192.024C225.843 207.601 247.499 224.734 297.86 232.798C319.696 236.294 347.986 237.529 371.052 235.992Z" fill="#00BCF2"/>
</svg>
