<svg width="700" height="700" viewBox="0 0 700 700" fill="none" xmlns="http://www.w3.org/2000/svg">
<circle cx="350" cy="350" r="350" fill="black"/>
<path d="M391.879 137.977C391.879 128.785 384.429 121.333 375.241 121.333C370.672 121.333 366.533 123.176 363.527 126.159L361.216 128.73L232.9 302.21H360.24L391.239 142.674L391.804 139.557C391.853 139.037 391.879 138.51 391.879 137.977Z" fill="#3ECF8E"/>
<path d="M186.667 373.782C186.667 388.488 198.585 400.411 213.286 400.411H213.404H341.16L360.24 302.211H232.9L194.315 354.378L191.83 358.016C188.584 362.43 186.667 367.882 186.667 373.782Z" fill="#3ECF8E"/>
<path d="M513.333 328.842C513.333 314.134 501.415 302.211 486.713 302.211H485.66H360.24L341.16 400.411H466.936L507.472 345.607L509.089 343.274C511.775 339.116 513.333 334.16 513.333 328.842Z" fill="#3ECF8E"/>
<path d="M310.044 562.023C310.044 571.215 317.492 578.667 326.681 578.667C331.608 578.667 336.036 576.524 339.081 573.119L339.737 572.38L466.936 400.411H341.16L310.647 557.452L310.565 557.874C310.224 559.2 310.044 560.591 310.044 562.023Z" fill="#3ECF8E"/>
<path d="M310.044 562.023C310.044 571.215 317.492 578.667 326.681 578.667C331.608 578.667 336.036 576.524 339.081 573.119L339.737 572.38L466.936 400.411H341.16L310.647 557.452L310.565 557.874C310.224 559.2 310.044 560.591 310.044 562.023Z" fill="url(#paint0_linear_2001_77)"/>
<defs>
<linearGradient id="paint0_linear_2001_77" x1="414.667" y1="416" x2="322.667" y2="578.667" gradientUnits="userSpaceOnUse">
<stop stop-color="#23915F"/>
<stop offset="1" stop-color="#3ECF8E" stop-opacity="0"/>
</linearGradient>
</defs>
</svg>
